<svg width="29" height="28" viewBox="0 0 29 28" fill="none" xmlns="http://www.w3.org/2000/svg">
<path d="M14.5 2.625C12.2502 2.625 10.051 3.29213 8.18039 4.54203C6.30978 5.79193 4.85182 7.56847 3.99088 9.64698C3.12993 11.7255 2.90467 14.0126 3.34357 16.2192C3.78248 18.4257 4.86584 20.4525 6.45667 22.0433C8.04749 23.6342 10.0743 24.7175 12.2809 25.1564C14.4874 25.5953 16.7745 25.3701 18.853 24.5091C20.9315 23.6482 22.7081 22.1902 23.958 20.3196C25.2079 18.449 25.875 16.2498 25.875 14C25.8718 10.9841 24.6724 8.09271 22.5398 5.96018C20.4073 3.82764 17.5159 2.62818 14.5 2.625ZM14.5 23.625C12.5964 23.625 10.7355 23.0605 9.15264 22.0029C7.56982 20.9453 6.33616 19.4421 5.60766 17.6833C4.87917 15.9246 4.68856 13.9893 5.05995 12.1223C5.43133 10.2552 6.34802 8.54018 7.6941 7.1941C9.04018 5.84802 10.7552 4.93132 12.6223 4.55994C14.4893 4.18856 16.4246 4.37917 18.1833 5.10766C19.9421 5.83615 21.4453 7.06981 22.5029 8.65264C23.5605 10.2355 24.125 12.0964 24.125 14C24.1221 16.5518 23.1071 18.9983 21.3027 20.8027C19.4983 22.6071 17.0518 23.6221 14.5 23.625ZM19.3584 7.96687L12.3584 11.4669C12.1892 11.5519 12.0519 11.6892 11.9669 11.8584L8.46688 18.8584C8.4001 18.9919 8.36856 19.1402 8.37526 19.2893C8.38196 19.4384 8.42667 19.5832 8.50515 19.7102C8.58363 19.8371 8.69326 19.9418 8.82363 20.0144C8.954 20.087 9.10078 20.1251 9.25 20.125C9.38584 20.1248 9.51982 20.0934 9.64157 20.0331L16.6416 16.5331C16.8108 16.4481 16.9481 16.3108 17.0331 16.1416L20.5331 9.14156C20.6157 8.9772 20.6444 8.791 20.6151 8.60942C20.5858 8.42783 20.5 8.26009 20.37 8.13002C20.2399 7.99996 20.0722 7.9142 19.8906 7.88491C19.709 7.85562 19.5228 7.8843 19.3584 7.96687ZM15.5938 15.0938L11.2067 17.2933L13.4063 12.9062L17.7977 10.7111L15.5938 15.0938Z" fill="#562C2C"/>
</svg>
