<svg width="24" height="24" viewBox="0 0 24 24" fill="none" xmlns="http://www.w3.org/2000/svg">
<rect width="24" height="24" rx="12" fill="white"/>
<path d="M14.2498 9C14.5959 9 14.9343 8.89737 15.222 8.70507C15.5098 8.51278 15.7341 8.23947 15.8666 7.9197C15.999 7.59993 16.0337 7.24806 15.9662 6.90859C15.8986 6.56913 15.732 6.25731 15.4872 6.01256C15.2425 5.76782 14.9307 5.60115 14.5912 5.53363C14.2517 5.4661 13.8999 5.50076 13.5801 5.63321C13.2603 5.76566 12.987 5.98997 12.7947 6.27775C12.6024 6.56554 12.4998 6.90388 12.4998 7.25C12.4998 7.71413 12.6842 8.15925 13.0124 8.48744C13.3406 8.81563 13.7857 9 14.2498 9ZM14.2498 6.5C14.3981 6.5 14.5431 6.54399 14.6665 6.6264C14.7898 6.70881 14.8859 6.82594 14.9427 6.96299C14.9995 7.10003 15.0143 7.25083 14.9854 7.39632C14.9564 7.5418 14.885 7.67544 14.7801 7.78033C14.6752 7.88522 14.5416 7.95665 14.3961 7.98559C14.2506 8.01453 14.0998 7.99968 13.9628 7.94291C13.8257 7.88614 13.7086 7.79002 13.6262 7.66668C13.5438 7.54334 13.4998 7.39834 13.4998 7.25C13.4998 7.05109 13.5788 6.86032 13.7195 6.71967C13.8601 6.57902 14.0509 6.5 14.2498 6.5ZM19.9298 16.245L16.5198 10.49C16.4319 10.3401 16.3061 10.2159 16.155 10.1299C16.004 10.0439 15.833 9.99911 15.6592 10C15.4854 9.99909 15.3145 10.0439 15.1636 10.1299C15.0126 10.2159 14.887 10.3401 14.7992 10.49L13.1642 13.25L10.3617 8.49375C10.2734 8.34366 10.1474 8.21924 9.99623 8.13279C9.84506 8.04635 9.67394 8.00087 9.4998 8.00087C9.32566 8.00087 9.15454 8.04635 9.00337 8.13279C8.85221 8.21924 8.72623 8.34366 8.63792 8.49375L4.06917 16.2463C4.02445 16.3222 4.00059 16.4086 4.00001 16.4967C3.99943 16.5848 4.02214 16.6715 4.06586 16.748C4.10957 16.8245 4.17273 16.8881 4.24893 16.9324C4.32513 16.9766 4.41168 17 4.4998 17H19.4998C19.5881 17 19.6747 16.9766 19.751 16.9323C19.8273 16.8879 19.8905 16.8241 19.9342 16.7475C19.9779 16.6708 20.0005 16.5839 19.9997 16.4956C19.9989 16.4074 19.9748 16.3209 19.9298 16.245ZM9.4998 9L10.9729 11.5H8.02667L9.4998 9ZM5.3748 16L7.4373 12.5H11.5623L12.7335 14.4875L13.6248 16H5.3748ZM14.7854 16L13.7442 14.2325L15.6592 11L18.6248 16H14.7854Z" fill="#562C2C"/>
</svg>
