<svg width="23" height="22" viewBox="0 0 23 22" fill="none" xmlns="http://www.w3.org/2000/svg">
<path d="M21.8571 19.3953L22.0338 19.5721L22.2107 19.3954L22.0339 19.2186L21.8571 19.3953ZM13.4638 10.9982L13.287 10.8214L13.1103 10.9982L13.287 11.1749L13.4638 10.9982ZM19.7353 21.5161L19.5585 21.6929L19.7352 21.8697L19.912 21.6929L19.7353 21.5161ZM11.343 13.12L11.5198 12.9432L11.343 12.7663L11.1661 12.9432L11.343 13.12ZM2.94993 21.5168L2.77319 21.6936L2.95001 21.8704L3.12675 21.6936L2.94993 21.5168ZM0.828125 19.396L0.651308 19.2192L0.474572 19.3961L0.651389 19.5728L0.828125 19.396ZM9.22212 10.9982L9.39894 11.1749L9.57559 10.9982L9.39894 10.8214L9.22212 10.9982ZM0.828125 2.60033L0.651389 2.42351L0.474572 2.60025L0.651308 2.77706L0.828125 2.60033ZM2.94993 0.479492L3.12675 0.302756L2.95001 0.125939L2.77319 0.302675L2.94993 0.479492ZM11.343 8.87635L11.1661 9.05309L11.343 9.22999L11.5198 9.05309L11.343 8.87635ZM19.7353 0.480186L19.912 0.303368L19.7352 0.126632L19.5585 0.303449L19.7353 0.480186ZM21.8571 2.60102L22.0339 2.77776L22.2107 2.60094L22.0338 2.4242L21.8571 2.60102ZM22.0339 19.2186L13.6406 10.8214L13.287 11.1749L21.6803 19.572L22.0339 19.2186ZM19.912 21.6929L22.0338 19.5721L21.6804 19.2185L19.5586 21.3393L19.912 21.6929ZM11.1661 13.2967L19.5585 21.6929L19.9121 21.3394L11.5198 12.9432L11.1661 13.2967ZM3.12675 21.6936L11.5198 13.2967L11.1661 12.9432L2.77311 21.3401L3.12675 21.6936ZM0.651389 19.5728L2.77319 21.6936L3.12667 21.34L1.00486 19.2192L0.651389 19.5728ZM9.0453 10.8214L0.651308 19.2192L1.00494 19.5727L9.39894 11.1749L9.0453 10.8214ZM0.651308 2.77706L9.0453 11.1749L9.39894 10.8214L1.00494 2.42359L0.651308 2.77706ZM2.77319 0.302675L0.651389 2.42351L1.00486 2.77715L3.12667 0.656309L2.77319 0.302675ZM11.5198 8.69962L3.12675 0.302756L2.77311 0.656229L11.1661 9.05309L11.5198 8.69962ZM19.5585 0.303449L11.1661 8.69962L11.5198 9.05309L19.9121 0.656922L19.5585 0.303449ZM22.0338 2.4242L19.912 0.303368L19.5586 0.657003L21.6804 2.77784L22.0338 2.4242ZM13.6406 11.1749L22.0339 2.77776L21.6803 2.42429L13.287 10.8214L13.6406 11.1749Z" fill="#000"/>
</svg>
