<svg width="28" height="28" viewBox="0 0 28 28" fill="none" xmlns="http://www.w3.org/2000/svg">
<path d="M27.8773 21.4288L21.9098 11.3575C21.7559 11.0951 21.5357 10.8778 21.2714 10.7273C21.0071 10.5768 20.7079 10.4984 20.4037 10.5C20.0997 10.4984 19.8006 10.5768 19.5364 10.7273C19.2723 10.8778 19.0523 11.0952 18.8987 11.3575L17.1881 14.2439C17.1482 14.3113 17.1272 14.3882 17.1272 14.4665C17.1272 14.5448 17.1482 14.6217 17.1881 14.6891L20.1193 19.6623C20.2306 19.847 20.271 20.0659 20.233 20.2782C20.195 20.4905 20.0811 20.6817 19.9126 20.8163C19.8144 20.8925 19.701 20.947 19.5801 20.976C19.4592 21.005 19.3335 21.0079 19.2114 20.9845C19.0893 20.9611 18.9735 20.912 18.8719 20.8403C18.7703 20.7687 18.6851 20.6762 18.622 20.5691L11.1331 7.86188C10.9785 7.59923 10.7581 7.38148 10.4935 7.2302C10.229 7.07892 9.92953 6.99934 9.62478 6.99934C9.32004 6.99934 9.02058 7.07892 8.75603 7.2302C8.49149 7.38148 8.27104 7.59923 8.1165 7.86188L0.121188 21.4309C0.0247187 21.5931 -0.0167531 21.7821 0.00295766 21.9697C0.0226684 22.1574 0.102506 22.3336 0.230563 22.4722C0.316793 22.5624 0.420825 22.6336 0.536057 22.6814C0.651288 22.7293 0.775203 22.7526 0.899938 22.75H27.0996C27.2238 22.7516 27.3471 22.7277 27.4616 22.6797C27.5762 22.6317 27.6797 22.5607 27.7657 22.4711C27.8944 22.3327 27.9748 22.1564 27.9949 21.9685C28.015 21.7806 27.9737 21.5912 27.8773 21.4288ZM7.04681 13.125L9.62478 8.75L12.2028 13.125H7.04681ZM15.3123 5.6875C15.3123 5.16833 15.4662 4.66081 15.7547 4.22913C16.0431 3.79745 16.4531 3.461 16.9327 3.26232C17.4124 3.06364 17.9402 3.01165 18.4494 3.11294C18.9586 3.21423 19.4263 3.46423 19.7934 3.83135C20.1605 4.19846 20.4106 4.66619 20.5118 5.17539C20.6131 5.68459 20.5611 6.21239 20.3625 6.69205C20.1638 7.1717 19.8273 7.58167 19.3957 7.87011C18.964 8.15855 18.4565 8.3125 17.9373 8.3125C17.2411 8.3125 16.5734 8.03594 16.0811 7.54366C15.5888 7.05137 15.3123 6.38369 15.3123 5.6875Z" fill="#F0F0F0"/>
</svg>
