<svg width="21" height="20" viewBox="0 0 21 20" fill="none" xmlns="http://www.w3.org/2000/svg">
<path d="M13.6877 6.25C14.1204 6.25 14.5433 6.12171 14.903 5.88134C15.2628 5.64098 15.5432 5.29933 15.7087 4.89962C15.8743 4.49991 15.9176 4.06007 15.8332 3.63574C15.7488 3.21141 15.5405 2.82163 15.2345 2.51571C14.9286 2.20978 14.5388 2.00144 14.1145 1.91703C13.6902 1.83263 13.2503 1.87595 12.8506 2.04151C12.4509 2.20708 12.1093 2.48746 11.8689 2.84719C11.6285 3.20692 11.5002 3.62985 11.5002 4.0625C11.5002 4.64266 11.7307 5.19906 12.1409 5.6093C12.5512 6.01953 13.1076 6.25 13.6877 6.25ZM13.6877 3.125C13.8732 3.125 14.0544 3.17998 14.2086 3.283C14.3628 3.38601 14.4829 3.53243 14.5539 3.70374C14.6248 3.87504 14.6434 4.06354 14.6072 4.2454C14.571 4.42726 14.4818 4.5943 14.3506 4.72541C14.2195 4.85653 14.0525 4.94581 13.8706 4.98199C13.6888 5.01816 13.5003 4.9996 13.329 4.92864C13.1577 4.85768 13.0112 4.73752 12.9082 4.58335C12.8052 4.42918 12.7502 4.24792 12.7502 4.0625C12.7502 3.81386 12.849 3.5754 13.0248 3.39959C13.2006 3.22377 13.4391 3.125 13.6877 3.125ZM20.7877 15.3063L16.5252 8.1125C16.4153 7.9251 16.2581 7.76988 16.0693 7.66238C15.8805 7.55488 15.6667 7.49889 15.4495 7.5C15.2323 7.49887 15.0187 7.55486 14.83 7.66237C14.6413 7.76987 14.4842 7.92511 14.3745 8.1125L12.3307 11.5625L8.82758 5.61719C8.71719 5.42958 8.55973 5.27405 8.37077 5.16599C8.18181 5.05793 7.96791 5.00109 7.75024 5.00109C7.53256 5.00109 7.31866 5.05793 7.1297 5.16599C6.94075 5.27405 6.78328 5.42958 6.67289 5.61719L0.961956 15.3078C0.906055 15.4027 0.87623 15.5107 0.875502 15.6209C0.874774 15.731 0.903168 15.8394 0.957809 15.935C1.01245 16.0307 1.0914 16.1102 1.18665 16.1655C1.28191 16.2208 1.39009 16.25 1.50024 16.25H20.2502C20.3606 16.25 20.4689 16.2208 20.5643 16.1653C20.6596 16.1099 20.7386 16.0302 20.7932 15.9343C20.8478 15.8385 20.8761 15.7299 20.8751 15.6195C20.8741 15.5092 20.844 15.4011 20.7877 15.3063ZM7.75024 6.25L9.59164 9.375H5.90883L7.75024 6.25ZM2.59399 15L5.17211 10.625H10.3284L11.7924 13.1094L12.9065 15H2.59399ZM14.3573 15L13.0557 12.7906L15.4495 8.75L19.1565 15H14.3573Z" fill="#562C2C"/>
</svg>
