<svg width="34" height="34" viewBox="0 0 34 34" fill="none" xmlns="http://www.w3.org/2000/svg">
<path d="M33.6898 17.7513L30.5023 20.9388C30.4036 21.0376 30.2865 21.116 30.1575 21.1695C30.0285 21.2229 29.8902 21.2505 29.7506 21.2505C29.611 21.2505 29.4727 21.2229 29.3437 21.1695C29.2147 21.116 29.0975 21.0376 28.9989 20.9388L25.8114 17.7513C25.612 17.552 25.5 17.2816 25.5 16.9996C25.5 16.7177 25.612 16.4473 25.8114 16.2479C26.0107 16.0485 26.2811 15.9365 26.5631 15.9365C26.845 15.9365 27.1154 16.0485 27.3148 16.2479L28.6881 17.6225V16.9996C28.6893 14.5248 27.9049 12.1135 26.448 10.1131C24.991 8.11265 22.9366 6.62632 20.5808 5.86823C18.225 5.11013 15.6893 5.1194 13.3391 5.8947C10.9889 6.67 8.94548 8.17131 7.50317 10.1824C7.33867 10.4113 7.08996 10.5655 6.81175 10.6111C6.53353 10.6567 6.24861 10.5899 6.01965 10.4254C5.7907 10.2609 5.63646 10.0122 5.59088 9.73398C5.5453 9.45577 5.61211 9.17085 5.77661 8.94189C7.48124 6.56524 9.89629 4.79103 12.6739 3.87485C15.4514 2.95867 18.4481 2.94783 21.2322 3.84387C24.0164 4.73991 26.4442 6.49659 28.166 8.86084C29.8878 11.2251 30.8147 14.0749 30.8131 16.9996V17.6225L32.1864 16.2479C32.3857 16.0485 32.6561 15.9365 32.9381 15.9365C33.22 15.9365 33.4904 16.0485 33.6898 16.2479C33.8892 16.4473 34.0012 16.7177 34.0012 16.9996C34.0012 17.2816 33.8892 17.552 33.6898 17.7513ZM28.2206 25.056C26.5155 27.4309 24.1008 29.2035 21.3241 30.1186C18.5474 31.0337 15.552 31.0442 12.769 30.1485C9.98595 29.2528 7.55891 27.4972 5.83722 25.1343C4.11552 22.7714 3.18797 19.9232 3.18809 16.9996V16.3767L1.81481 17.7513C1.61544 17.9507 1.34504 18.0627 1.06309 18.0627C0.781142 18.0627 0.51074 17.9507 0.311372 17.7513C0.112004 17.552 0 17.2816 0 16.9996C0 16.7177 0.112004 16.4473 0.311372 16.2479L3.49887 13.0604C3.59755 12.9616 3.71473 12.8833 3.84372 12.8298C3.9727 12.7763 4.11096 12.7488 4.25059 12.7488C4.39022 12.7488 4.52848 12.7763 4.65746 12.8298C4.78645 12.8833 4.90363 12.9616 5.00231 13.0604L8.18981 16.2479C8.38918 16.4473 8.50118 16.7177 8.50118 16.9996C8.50118 17.2816 8.38918 17.552 8.18981 17.7513C7.99044 17.9507 7.72004 18.0627 7.43809 18.0627C7.15614 18.0627 6.88574 17.9507 6.68637 17.7513L5.31309 16.3767V16.9996C5.31057 19.8607 6.36211 22.6224 8.26684 24.7572C9.45184 23.04 11.1181 21.7116 13.0561 20.9388C12.0151 20.1189 11.2554 18.995 10.8828 17.7233C10.5102 16.4517 10.5431 15.0955 10.977 13.8434C11.4109 12.5913 12.2241 11.5056 13.3037 10.7371C14.3833 9.96866 15.6755 9.55572 17.0006 9.55572C18.3257 9.55572 19.6179 9.96866 20.6975 10.7371C21.777 11.5056 22.5903 12.5913 23.0242 13.8434C23.4581 15.0955 23.491 16.4517 23.1184 17.7233C22.7458 18.995 21.9861 20.1189 20.9451 20.9388C22.8849 21.7117 24.5523 23.0418 25.737 24.7612C26.0056 24.4595 26.2587 24.1443 26.4954 23.8169C26.6599 23.5879 26.9086 23.4337 27.1868 23.3881C27.465 23.3425 27.7499 23.4093 27.9789 23.5738C28.2078 23.7383 28.3621 23.9871 28.4076 24.2653C28.4532 24.5435 28.3864 24.8284 28.2219 25.0574L28.2206 25.056ZM17.0006 20.1871C17.8412 20.1871 18.6629 19.9379 19.3618 19.4709C20.0607 19.0039 20.6054 18.3401 20.9271 17.5635C21.2488 16.7869 21.3329 15.9324 21.1689 15.108C21.0049 14.2836 20.6002 13.5263 20.0058 12.9319C19.4114 12.3375 18.6541 11.9328 17.8297 11.7688C17.0053 11.6048 16.1508 11.689 15.3742 12.0106C14.5976 12.3323 13.9338 12.877 13.4668 13.576C12.9998 14.2749 12.7506 15.0966 12.7506 15.9371C12.7506 17.0643 13.1984 18.1453 13.9954 18.9423C14.7924 19.7394 15.8734 20.1871 17.0006 20.1871ZM17.0006 28.6871C19.5937 28.6837 22.1124 27.8201 24.1618 26.2314C23.3932 25.0293 22.3343 24.04 21.0828 23.3548C19.8313 22.6695 18.4274 22.3103 17.0006 22.3103C15.5738 22.3103 14.1699 22.6695 12.9184 23.3548C11.6668 24.04 10.608 25.0293 9.83934 26.2314C11.8857 27.8257 14.4064 28.6901 17.0006 28.6871Z" fill="white"/>
</svg>
