<svg width="18" height="19" viewBox="0 0 18 19" fill="none" xmlns="http://www.w3.org/2000/svg">
<path d="M15.8324 4.71808V0.25M14.9091 6.20745C14.9091 6.42837 14.9741 6.64434 15.0958 6.82803C15.2176 7.01172 15.3906 7.1549 15.5931 7.23944C15.7955 7.32398 16.0183 7.34611 16.2332 7.303C16.4481 7.2599 16.6455 7.15352 16.8005 6.9973C16.9554 6.84108 17.061 6.64205 17.1037 6.42537C17.1465 6.20869 17.1245 5.98409 17.0407 5.77998C16.9568 5.57587 16.8148 5.40142 16.6326 5.27868C16.4871 5.18065 16.3211 5.11913 16.1486 5.09833C16.0648 5.08822 15.9836 5.05672 15.9242 4.9968V4.9968C15.8654 4.93752 15.8324 4.8574 15.8324 4.7739V4.34574M7.52273 15.1436C5.89034 15.1436 4.56818 13.6431 4.56818 11.7926C4.56818 9.94202 5.89034 8.44149 7.52273 8.44149H8.11364C9.95649 8.44149 11.1921 8.07623 12.6509 6.62216C12.6778 6.59536 12.6932 6.55849 12.6932 6.52052V6.52052C12.6932 6.448 12.6391 6.3869 12.5672 6.37706C11.4727 6.22719 10.8081 5.97835 10.5734 5.87851C10.5136 5.85307 10.4773 5.79411 10.4773 5.72913V5.72913C10.4773 5.67829 10.4991 5.63063 10.5389 5.59905C10.7793 5.40848 11.6932 4.72029 12.7542 4.3832C12.8271 4.36004 12.8778 4.29307 12.8778 4.21658V4.21658C12.8778 4.17957 12.8659 4.14344 12.8435 4.11398C11.716 2.63179 10.0154 1.73936 8.11364 1.73936H7.52273C6.77715 1.7386 6.03677 1.86447 5.33267 2.1117M7.52273 15.1436C5.75964 15.1436 4.06876 14.4375 2.82207 13.1806C1.57538 11.9237 0.875 10.219 0.875 8.44149M7.52273 15.1436C8.30003 13.7398 9.73691 12.593 11.3901 12.5392C11.457 12.537 11.5114 12.5915 11.5114 12.6584V12.6584C11.5114 12.699 11.4917 12.7365 11.459 12.7605C11.2043 12.9471 10.108 13.8272 10.108 15.1436C10.108 16.46 11.2043 17.3401 11.459 17.5268C11.4917 17.5508 11.5114 17.5882 11.5114 17.6288V17.6288C11.5114 17.6958 11.457 17.7502 11.3901 17.748C9.73691 17.6943 8.30003 16.5474 7.52273 15.1436ZM5.33267 2.1117H5.30682C3.96739 2.1117 2.80766 1.33524 2.45905 1.07705C2.38855 1.02483 2.30426 0.994681 2.21653 0.994681V0.994681C2.07346 0.994681 1.94426 1.07479 1.89151 1.20778C1.6262 1.87659 0.875 4.14924 0.875 8.44149M5.33267 2.1117C4.03024 2.57033 2.90151 3.42596 2.10283 4.56007C1.30415 5.69417 0.875064 7.05061 0.875 8.44149M9 4.71808V3.22872" stroke="#562C2C" stroke-width="1.25"/>
</svg>
